<?xml version="1.0" encoding="iso-8859-1"?>
<!-- Generator: Adobe Illustrator 19.0.0, SVG Export Plug-In . SVG Version: 6.00 Build 0)  -->
<svg version="1.1" id="Capa_1" xmlns="http://www.w3.org/2000/svg" xmlns:xlink="http://www.w3.org/1999/xlink" x="0px" y="0px"
	 viewBox="0 0 211.627 211.627" style="enable-background:new 0 0 211.627 211.627;" xml:space="preserve">
<path style="fill:#EE5281;" d="M153.6,59.733c0-26.392-21.395-47.787-47.787-47.787S58.027,33.341,58.027,59.733H153.6z"/>
<path d="M157.013,63.147h-102.4v-3.413c0-28.232,22.968-51.2,51.2-51.2s51.2,22.968,51.2,51.2V63.147z M61.57,56.32h88.487
	c-1.748-22.88-20.924-40.96-44.244-40.96S63.319,33.44,61.57,56.32z"/>
<path style="fill:#FFFFFF;" d="M153.6,59.733c0,26.392-21.395,47.787-47.787,47.787S58.027,86.125,58.027,59.733H153.6z"/>
<path d="M105.813,110.933c-28.232,0-51.2-22.968-51.2-51.2c0-1.884,1.529-3.413,3.413-3.413H153.6c1.884,0,3.413,1.529,3.413,3.413
	C157.013,87.965,134.045,110.933,105.813,110.933z M61.57,63.147c1.748,22.88,20.924,40.96,44.244,40.96s42.494-18.08,44.244-40.96
	H61.57z"/>
<circle style="fill:#FFFFFF;" cx="105.813" cy="59.733" r="14.336"/>
<path d="M105.813,77.483c-9.786,0-17.749-7.963-17.749-17.749s7.963-17.749,17.749-17.749s17.749,7.963,17.749,17.749
	S115.599,77.483,105.813,77.483z M105.813,48.811c-6.023,0-10.923,4.9-10.923,10.923s4.9,10.923,10.923,10.923
	c6.023,0,10.923-4.9,10.923-10.923S111.836,48.811,105.813,48.811z"/>
<path style="fill:#EE5281;" d="M98.987,151.893c0-26.392-21.395-47.787-47.787-47.787S3.413,125.501,3.413,151.893H98.987z"/>
<path d="M102.4,155.307H0v-3.413c0-28.232,22.968-51.2,51.2-51.2s51.2,22.968,51.2,51.2V155.307z M6.956,148.48h88.487
	C93.696,125.6,74.52,107.52,51.2,107.52S8.706,125.6,6.956,148.48z"/>
<path style="fill:#FFFFFF;" d="M98.987,151.893c0,26.392-21.395,47.787-47.787,47.787S3.413,178.285,3.413,151.893H98.987z"/>
<path d="M51.2,203.093c-28.232,0-51.2-22.968-51.2-51.2c0-1.884,1.529-3.413,3.413-3.413h95.573c1.884,0,3.413,1.529,3.413,3.413
	C102.4,180.125,79.432,203.093,51.2,203.093z M6.956,155.307c1.748,22.88,20.924,40.96,44.244,40.96s42.494-18.08,44.244-40.96
	H6.956z"/>
<circle style="fill:#FFFFFF;" cx="51.2" cy="151.893" r="14.336"/>
<path d="M51.2,169.643c-9.786,0-17.749-7.963-17.749-17.749c0-9.786,7.963-17.749,17.749-17.749s17.749,7.963,17.749,17.749
	C68.949,161.679,60.986,169.643,51.2,169.643z M51.2,140.971c-6.023,0-10.923,4.9-10.923,10.923s4.9,10.923,10.923,10.923
	s10.923-4.9,10.923-10.923S57.223,140.971,51.2,140.971z"/>
<path style="fill:#EE5281;" d="M208.213,151.893c0-26.392-21.395-47.787-47.787-47.787s-47.787,21.395-47.787,47.787H208.213z"/>
<path d="M211.627,155.307h-102.4v-3.413c0-28.232,22.968-51.2,51.2-51.2s51.2,22.968,51.2,51.2V155.307z M116.183,148.48h88.487
	c-1.748-22.88-20.924-40.96-44.244-40.96S117.932,125.6,116.183,148.48z"/>
<path style="fill:#FFFFFF;" d="M208.213,151.893c0,26.392-21.395,47.787-47.787,47.787s-47.787-21.395-47.787-47.787H208.213z"/>
<path d="M160.427,203.093c-28.232,0-51.2-22.968-51.2-51.2c0-1.884,1.529-3.413,3.413-3.413h95.573c1.884,0,3.413,1.529,3.413,3.413
	C211.627,180.125,188.658,203.093,160.427,203.093z M116.183,155.307c1.748,22.88,20.924,40.96,44.244,40.96
	s42.494-18.08,44.244-40.96H116.183z"/>
<circle style="fill:#FFFFFF;" cx="160.427" cy="151.893" r="14.336"/>
<path d="M160.427,169.643c-9.786,0-17.749-7.963-17.749-17.749c0-9.786,7.963-17.749,17.749-17.749
	c9.786,0,17.749,7.963,17.749,17.749C178.176,161.679,170.213,169.643,160.427,169.643z M160.427,140.971
	c-6.023,0-10.923,4.9-10.923,10.923s4.9,10.923,10.923,10.923s10.923-4.9,10.923-10.923S166.45,140.971,160.427,140.971z"/>
<g>
</g>
<g>
</g>
<g>
</g>
<g>
</g>
<g>
</g>
<g>
</g>
<g>
</g>
<g>
</g>
<g>
</g>
<g>
</g>
<g>
</g>
<g>
</g>
<g>
</g>
<g>
</g>
<g>
</g>
</svg>
