<svg height="413pt" viewBox="0 -2 413.64136 413" width="413pt" xmlns="http://www.w3.org/2000/svg"><path d="m329.71875 208.804688c0 84.832031-68.769531 153.601562-153.597656 153.601562-84.832032 0-153.601563-68.769531-153.601563-153.601562 0-84.828126 68.769531-153.597657 153.601563-153.597657 84.828125 0 153.597656 68.769531 153.597656 153.597657zm0 0" fill="#c1dbdc"/><g fill="#4c241d"><path d="m338.019531 26.425781c-1.746093 0-3.492187-.667969-4.828125-2-2.664062-2.664062-2.664062-6.988281 0-9.652343l12.453125-12.453126c2.667969-2.667968 6.988281-2.667968 9.65625 0 2.664063 2.664063 2.664063 6.988282 0 9.652344l-12.457031 12.453125c-1.332031 1.332031-3.078125 2-4.824219 2zm0 0"/><path d="m308.964844 55.480469c-1.746094 0-3.492188-.667969-4.824219-2-2.667969-2.667969-2.667969-6.988281 0-9.652344l12.453125-12.457031c2.664062-2.664063 6.988281-2.664063 9.652344 0 2.667968 2.667968 2.667968 6.988281 0 9.65625l-12.453125 12.453125c-1.332031 1.332031-3.082031 2-4.828125 2zm0 0"/><path d="m321.421875 26.425781c-1.746094 0-3.496094-.667969-4.828125-2l-12.453125-12.453125c-2.667969-2.664062-2.667969-6.988281 0-9.652344 2.664063-2.667968 6.988281-2.667968 9.652344 0l12.453125 12.453126c2.667968 2.664062 2.667968 6.988281 0 9.652343-1.332032 1.332031-3.082032 2-4.824219 2zm0 0"/><path d="m350.472656 55.480469c-1.746094 0-3.492187-.667969-4.828125-2l-12.453125-12.453125c-2.664062-2.667969-2.664062-6.988282 0-9.65625 2.667969-2.664063 6.988282-2.664063 9.652344 0l12.457031 12.457031c2.664063 2.664063 2.664063 6.984375 0 9.652344-1.335937 1.332031-3.082031 2-4.828125 2zm0 0"/><path d="m65.519531 376.058594h-17.605469c-3.773437 0-6.828124-3.054688-6.828124-6.824219 0-3.773437 3.054687-6.828125 6.828124-6.828125h17.605469c3.773438 0 6.824219 3.054688 6.824219 6.828125 0 3.769531-3.050781 6.824219-6.824219 6.824219zm0 0"/><path d="m24.433594 376.058594h-17.605469c-3.773437 0-6.828125-3.054688-6.828125-6.824219 0-3.773437 3.054688-6.828125 6.828125-6.828125h17.605469c3.773437 0 6.824218 3.054688 6.824218 6.828125 0 3.769531-3.050781 6.824219-6.824218 6.824219zm0 0"/><path d="m36.171875 364.320312c-3.773437 0-6.824219-3.058593-6.824219-6.828124v-17.609376c0-3.769531 3.050782-6.824218 6.824219-6.824218s6.828125 3.054687 6.828125 6.824218v17.609376c0 3.769531-3.054688 6.828124-6.828125 6.828124zm0 0"/><path d="m36.171875 405.410156c-3.773437 0-6.824219-3.058594-6.824219-6.828125v-17.609375c0-3.769531 3.050782-6.828125 6.824219-6.828125s6.828125 3.058594 6.828125 6.828125v17.609375c0 3.769531-3.054688 6.828125-6.828125 6.828125zm0 0"/><path d="m389.839844 404.519531c-11.613282 0-21.058594-9.445312-21.058594-21.054687 0-11.613282 9.445312-21.058594 21.058594-21.058594 11.613281 0 21.0625 9.445312 21.0625 21.058594 0 11.609375-9.449219 21.054687-21.0625 21.054687zm0-28.460937c-4.085938 0-7.40625 3.320312-7.40625 7.40625 0 4.082031 3.320312 7.402344 7.40625 7.402344 4.085937 0 7.40625-3.320313 7.40625-7.402344 0-4.085938-3.320313-7.40625-7.40625-7.40625zm0 0"/><path d="m133.5 73.851562c-1.746094 0-3.496094-.667968-4.828125-2-2.664063-2.667968-2.664063-6.988281 0-9.65625l20.128906-20.125c2.664063-2.667968 6.984375-2.667968 9.652344 0 2.664063 2.664063 2.664063 6.988282 0 9.652344l-20.128906 20.128906c-1.332031 1.332032-3.078125 2-4.824219 2zm0 0"/></g><path d="m343.816406 110.261719-60.140625 34.785156 56.226563 49.777344 29-59.476563zm0 0" fill="#ffce56"/><path d="m339.898438 201.652344c-1.652344 0-3.265626-.597656-4.523438-1.714844l-56.226562-49.777344c-1.640626-1.453125-2.488282-3.609375-2.265626-5.792968.21875-2.1875 1.472657-4.128907 3.371094-5.226563l60.140625-34.789063c2.664063-1.542968 6.058594-1.101562 8.246094 1.085938l25.085937 25.085938c2.0625 2.058593 2.589844 5.199218 1.308594 7.820312l-29 59.476562c-.933594 1.917969-2.707031 3.289063-4.800781 3.703126-.449219.085937-.894531.128906-1.335937.128906zm-44.605469-55.4375 42.40625 37.546875 22.933593-47.03125-17.9375-17.9375zm0 0" fill="#4c241d"/><path d="m395.796875 80.195312-51.980469 30.066407 25.085938 25.085937zm0 0" fill="#6b4f5b"/><path d="m368.898438 142.175781c-1.792969 0-3.53125-.710937-4.824219-2l-25.085938-25.085937c-1.5-1.5-2.222656-3.613282-1.941406-5.71875.273437-2.101563 1.511719-3.953125 3.347656-5.019532l51.984375-30.066406c2.605469-1.5 5.878906-1.136718 8.074219.917969 2.199219 2.046875 2.800781 5.289063 1.480469 7.988281l-26.902344 55.152344c-.964844 1.984375-2.832031 3.375-5.007812 3.738281-.371094.066407-.75.09375-1.125.09375zm-13.972657-30.453125 12.035157 12.035156 12.902343-26.457031zm0 0" fill="#4c241d"/><path d="m103.996094 110.261719 60.140625 34.785156-56.226563 49.777344-29-59.476563zm0 0" fill="#ffce56"/><path d="m107.914062 201.652344c-.441406 0-.890624-.042969-1.335937-.128906-2.09375-.414063-3.867187-1.785157-4.796875-3.703126l-29.003906-59.476562c-1.277344-2.621094-.75-5.761719 1.308594-7.820312l25.085937-25.085938c2.1875-2.1875 5.574219-2.628906 8.246094-1.085938l60.140625 34.789063c1.898437 1.101563 3.152344 3.042969 3.375 5.226563.21875 2.179687-.628906 4.339843-2.265625 5.792968l-56.226563 49.777344c-1.261718 1.117188-2.875 1.714844-4.527344 1.714844zm-20.734374-64.917969 22.933593 47.03125 42.40625-37.546875-47.398437-27.421875zm0 0" fill="#4c241d"/><path d="m52.015625 80.195312 51.980469 30.066407-25.085938 25.085937zm0 0" fill="#6b4f5b"/><path d="m78.914062 142.175781c-.375 0-.753906-.03125-1.128906-.09375-2.171875-.363281-4.039062-1.753906-5.007812-3.738281l-26.898438-55.152344c-1.316406-2.699218-.71875-5.941406 1.480469-7.988281 2.195313-2.054687 5.472656-2.421875 8.074219-.917969l51.984375 30.066406c1.835937 1.066407 3.074219 2.917969 3.347656 5.019532.28125 2.105468-.441406 4.21875-1.941406 5.71875l-25.085938 25.085937c-1.292969 1.289063-3.03125 2-4.824219 2zm-10.960937-44.875 12.898437 26.457031 12.035157-12.035156zm0 0" fill="#4c241d"/><path d="m153.625 73.851562c-1.746094 0-3.492188-.667968-4.824219-2l-20.128906-20.128906c-2.664063-2.664062-2.664063-6.988281 0-9.652344 2.667969-2.667968 6.988281-2.667968 9.652344 0l20.128906 20.125c2.664063 2.667969 2.664063 6.988282 0 9.65625-1.332031 1.332032-3.078125 2-4.828125 2zm0 0" fill="#4c241d"/><path d="m118.964844 353.925781c-13.421875-15.464843-23.726563-34.0625-29.644532-55.082031-21.449218-76.214844 22.949219-155.386719 99.164063-176.835938 76.210937-21.453124 155.386719 22.945313 176.835937 99.160157 21.453126 76.214843-22.945312 155.386719-99.160156 176.835937-34.925781 9.832032-70.472656 5.832032-100.804687-8.71875" fill="#ffce56"/><path d="m227.292969 410.203125c-22.300781 0-44.476563-4.964844-64.894531-14.757813-3.398438-1.632812-4.832032-5.710937-3.199219-9.113281 1.625-3.390625 5.699219-4.835937 9.105469-3.203125 29.921874 14.359375 64.007812 17.316406 96.007812 8.308594 72.460938-20.398438 114.828125-95.953125 94.433594-168.421875-20.394532-72.480469-95.960938-114.8125-168.421875-94.441406-72.457031 20.398437-114.824219 95.953125-94.433594 168.421875 5.515625 19.585937 15.015625 37.234375 28.226563 52.453125 2.476562 2.847656 2.167968 7.160156-.675782 9.628906-2.835937 2.472656-7.160156 2.171875-9.628906-.675781-14.546875-16.75-25-36.164063-31.066406-57.703125-22.433594-79.722657 24.171875-162.828125 103.886718-185.261719 79.691407-22.421875 162.820313 24.164062 185.261719 103.878906 22.433594 79.722656-24.175781 162.828125-103.886719 185.261719-13.359374 3.761719-27.0625 5.625-40.714843 5.625zm0 0" fill="#4c241d"/><path d="m145.492188 384.558594c-1.34375 0-2.699219-.394532-3.890626-1.222656-4.203124-2.917969-8.273437-6.066407-12.101562-9.347657-2.859375-2.453125-3.1875-6.765625-.734375-9.625 2.453125-2.867187 6.753906-3.183593 9.628906-.742187 3.472657 2.984375 7.179688 5.84375 11.003907 8.507812 3.09375 2.148438 3.863281 6.40625 1.707031 9.496094-1.328125 1.910156-3.453125 2.933594-5.613281 2.933594zm0 0" fill="#4c241d"/><path d="m313.347656 272.300781c-3.773437 0-6.828125-3.058593-6.828125-6.828125 0-6.03125-4.90625-10.933594-10.933593-10.933594-6.027344 0-10.933594 4.902344-10.933594 10.933594 0 3.769532-3.050782 6.828125-6.824219 6.828125s-6.828125-3.058593-6.828125-6.828125c0-13.554687 11.027344-24.585937 24.585938-24.585937 13.558593 0 24.585937 11.03125 24.585937 24.585937 0 3.769532-3.050781 6.828125-6.824219 6.828125zm0 0" fill="#4c241d"/><path d="m169.984375 272.300781c-3.773437 0-6.824219-3.058593-6.824219-6.828125 0-6.03125-4.90625-10.933594-10.933594-10.933594-6.027343 0-10.933593 4.902344-10.933593 10.933594 0 3.769532-3.054688 6.828125-6.828125 6.828125-3.773438 0-6.824219-3.058593-6.824219-6.828125 0-13.554687 11.027344-24.585937 24.585937-24.585937 13.558594 0 24.585938 11.03125 24.585938 24.585937 0 3.769532-3.054688 6.828125-6.828125 6.828125zm0 0" fill="#4c241d"/><path d="m38.175781 34.726562c0 4.875-3.953125 8.828126-8.828125 8.828126-4.878906 0-8.832031-3.953126-8.832031-8.828126s3.953125-8.828124 8.832031-8.828124c4.875 0 8.828125 3.953124 8.828125 8.828124zm0 0" fill="#4c241d"/><path d="m413.640625 157.605469c0 4.875-3.953125 8.828125-8.828125 8.828125s-8.828125-3.953125-8.828125-8.828125 3.953125-8.828125 8.828125-8.828125 8.828125 3.953125 8.828125 8.828125zm0 0" fill="#4c241d"/><path d="m355.070312 318.03125c0 12.117188-9.820312 21.9375-21.9375 21.9375-12.117187 0-21.9375-9.820312-21.9375-21.9375 0-12.113281 9.820313-21.9375 21.9375-21.9375 12.117188 0 21.9375 9.824219 21.9375 21.9375zm0 0" fill="#e66353"/><path d="m333.132812 346.796875c-15.859374 0-28.765624-12.902344-28.765624-28.765625 0-15.859375 12.90625-28.761719 28.765624-28.761719 15.859376 0 28.765626 12.902344 28.765626 28.761719 0 15.863281-12.90625 28.765625-28.765626 28.765625zm0-43.875c-8.332031 0-15.113281 6.777344-15.113281 15.113281 0 8.332032 6.78125 15.109375 15.113281 15.109375 8.332032 0 15.113282-6.777343 15.113282-15.109375 0-8.335937-6.78125-15.113281-15.113282-15.113281zm0 0" fill="#4c241d"/><path d="m143.445312 318.03125c0 12.117188-9.824218 21.9375-21.9375 21.9375-12.117187 0-21.9375-9.820312-21.9375-21.9375 0-12.113281 9.820313-21.9375 21.9375-21.9375 12.113282 0 21.9375 9.824219 21.9375 21.9375zm0 0" fill="#e66353"/><path d="m121.507812 346.796875c-15.863281 0-28.765624-12.902344-28.765624-28.765625 0-15.859375 12.902343-28.761719 28.765624-28.761719 15.859376 0 28.765626 12.902344 28.765626 28.761719 0 15.863281-12.90625 28.765625-28.765626 28.765625zm0-43.875c-8.335937 0-15.113281 6.777344-15.113281 15.113281 0 8.332032 6.78125 15.109375 15.113281 15.109375 8.332032 0 15.109376-6.777343 15.109376-15.109375 0-8.335937-6.777344-15.113281-15.109376-15.113281zm0 0" fill="#4c241d"/><path d="m251.765625 315.921875c-12.167969 0-21.972656-5.351563-28.234375-10.824219-22.539062 18.027344-44.003906 7.664063-44.972656 7.183594-3.375-1.683594-4.738282-5.785156-3.054688-9.15625 1.679688-3.355469 5.746094-4.726562 9.113282-3.078125.828124.390625 17.335937 7.855469 34.460937-9.269531 1.398437-1.40625 3.285156-2.113282 5.3125-1.984375 1.972656.140625 3.789063 1.128906 4.972656 2.714843.507813.65625 13.246094 16.773438 34.300781 8.328126 3.46875-1.390626 7.472657.304687 8.875 3.804687 1.398438 3.503906-.308593 7.472656-3.808593 8.875-6.023438 2.410156-11.710938 3.40625-16.964844 3.40625zm0 0" fill="#4c241d"/><path d="m223.90625 295.601562c-14.121094 14.125-28.210938 14.089844-36.03125 12.515626 2.289062 14.753906 8.003906 39.558593 18.070312 57.636718 7.417969 13.324219 26.375 13.605469 34.472657.679688 7.792969-12.445313 15.457031-31.332032 15.664062-57.613282-20.300781 2.554688-32.175781-13.21875-32.175781-13.21875zm0 0" fill="#e66353"/><path d="m223.3125 382.769531c-.242188 0-.480469-.003906-.71875-.007812-9.527344-.25-17.976562-5.363281-22.613281-13.6875-12.28125-22.058594-17.535157-51.433594-18.855469-59.910157-.339844-2.207031.414062-4.441406 2.027344-5.984374 1.605468-1.542969 3.875-2.203126 6.066406-1.757813 7.308594 1.464844 18.40625.804687 29.859375-10.644531 1.402344-1.40625 3.328125-2.113282 5.308594-1.984375 1.957031.136719 3.757812 1.113281 4.953125 2.671875.4375.574218 9.9375 12.582031 25.886718 10.578125 2-.257813 3.917969.363281 5.386719 1.667969 1.472657 1.308593 2.304688 3.1875 2.292969 5.15625-.175781 22.859374-5.945312 44.015624-16.699219 61.1875-5.015625 8-13.527343 12.714843-22.894531 12.714843zm-27.171875-67.164062c3.027344 15.179687 8.347656 33.5 15.773437 46.828125 2.292969 4.121094 6.3125 6.554687 11.03125 6.675781 4.554688.039063 9.136719-2.230469 11.6875-6.300781 8.441407-13.472656 13.261719-29.242188 14.375-46.964844-11.707031-.742188-20.359374-6.390625-25.414062-10.804688-9.960938 7.949219-19.746094 10.332032-27.453125 10.566407zm0 0" fill="#4c241d"/></svg>